<svg id="color_line" height="512" viewBox="0 0 74 74" width="512" xmlns="http://www.w3.org/2000/svg" data-name="color line"><path d="m64.744 22.678v-4.472l-4.582-.806v.03a13.113 13.113 0 0 0 -1.645-3.96l.03.029 2.67-3.809-3.163-3.163-3.809 2.673.029.029a13.113 13.113 0 0 0 -3.96-1.645h.03l-.805-4.584h-4.473l-.806 4.582h.03a13.113 13.113 0 0 0 -3.96 1.645l.03-.029-3.81-2.671-3.162 3.163 2.67 3.809.03-.029a13.115 13.115 0 0 0 -1.646 3.96v-.03l-4.582.806v4.472l4.582.806v-.03a13.115 13.115 0 0 0 1.646 3.96l-.03-.03-2.67 3.81 3.162 3.163 3.81-2.671-.03-.029a13.113 13.113 0 0 0 3.96 1.643h-.03l.806 4.582h4.473l.8-4.582h-.03a13.113 13.113 0 0 0 3.96-1.645l-.029.029 3.809 2.671 3.163-3.163-2.67-3.81-.03.03a13.113 13.113 0 0 0 1.645-3.96v.03z" fill="#e1e6e9"/><path d="m34.9 40.784-.989-3.164-3.42.443.007.021a9.743 9.743 0 0 0 -2.04-2.438l.028.015 1.047-3.286-2.933-1.538-2.105 2.731.028.015a9.74 9.74 0 0 0 -3.166-.289l.021-.006-1.582-3.064-3.165.989.443 3.42.021-.007a9.72 9.72 0 0 0 -2.437 2.04l.014-.028-3.285-1.046-1.543 2.936 2.732 2.105.014-.028a9.715 9.715 0 0 0 -.288 3.166l-.002-.021-3.068 1.583.989 3.164 3.419-.443-.006-.021a9.739 9.739 0 0 0 2.039 2.438l-.027-.015-1.046 3.286 2.937 1.538 2.1-2.732-.027-.014a9.709 9.709 0 0 0 3.165.288l-.021.007 1.583 3.063 3.163-.992-.443-3.42-.021.007a9.743 9.743 0 0 0 2.438-2.04l-.015.027 3.286 1.047 1.538-2.936-2.731-2.1-.015.028a9.743 9.743 0 0 0 .289-3.166l.006.021z" fill="#89c5cd"/><path d="m64.359 59.994.409-3.647-3.661-1.075v.024a10.769 10.769 0 0 0 -.98-3.379l.022.027 2.525-2.861-2.289-2.868-3.35 1.829.021.027a10.752 10.752 0 0 0 -3.078-1.7h.025l-.238-3.809-3.647-.409-1.078 3.661h.024a10.769 10.769 0 0 0 -3.378.979l.026-.021-2.861-2.522-2.868 2.289 1.829 3.35.027-.022a10.773 10.773 0 0 0 -1.7 3.078v-.024l-3.809.238-.408 3.646 3.661 1.076v-.025a10.769 10.769 0 0 0 .98 3.379l-.022-.027-2.523 2.862 2.289 2.867 3.35-1.828-.022-.027a10.778 10.778 0 0 0 3.079 1.7h-.025l.238 3.809 3.647.409 1.075-3.662h-.024a10.784 10.784 0 0 0 3.375-.982l-.027.022 2.865 2.522 2.868-2.29-1.829-3.349-.027.021a10.773 10.773 0 0 0 1.7-3.078v.024z" fill="#fe7058"/><path d="m42.37 8.19-.21 1.18h.03a13.444 13.444 0 0 0 -3.96 1.65l.03-.03-3.63-2.54 1.92-1.92 3.81 2.67-.03.03a13.977 13.977 0 0 1 2.04-1.04z" fill="#d5d6db"/><path d="m58.55 27.38 2.67 3.81-3.17 3.17-.18-.13 1.25-1.24-2.67-3.81-.03.03a13.161 13.161 0 0 0 1.64-3.96v.03l1.64-.29a13.219 13.219 0 0 1 -1.18 2.42z" fill="#d5d6db"/><path d="m23.87 33.44-1.48 1.92a9.977 9.977 0 0 0 -3.14-.27l.02-.01-1.58-3.06-.92.29-.14-1.1 3.16-.99 1.58 3.07a9.459 9.459 0 0 1 2.5.15z" fill="#6eaaad"/><path d="m31.56 45.48 2.73 2.11-1.54 2.94-1-.32.44-.83-2.73-2.1-.02.02a9.547 9.547 0 0 0 .29-3.16l.01.02 2.12-1.09a9.5 9.5 0 0 1 -.32 2.44z" fill="#6eaaad"/><path d="m28.39 39.85.01.03a9.47 9.47 0 0 0 -2.04-2.44l.03.01 1.04-3.28-2.42-1.27 1.59-2.06 2.93 1.54-1.04 3.28-.03-.01a9.668 9.668 0 0 1 2.03 2.41l3.42-.44.99 3.16-2.29 1.19-.8-2.56z" fill="#6eaaad"/><path d="m45.69 46.8a10.024 10.024 0 0 1 1.68-.64l-.43 1.45a10.624 10.624 0 0 0 -3.35.98l.02-.02-2.86-2.53-.73.58-.04-.08 2.87-2.29 2.86 2.52z" fill="#ea6453"/><path d="m64.77 56.35-.41 3.64-1.91.12.22-1.97-3.66-1.08-.01.03a10.542 10.542 0 0 0 -.98-3.38l.03.03 2.52-2.87-2.29-2.86-3.35 1.83a10.771 10.771 0 0 0 -3.05-1.68h.02l-.24-3.81-2.12-.24.58-1.96 3.64.41.24 3.81h-.02a10.692 10.692 0 0 1 3.07 1.7l-.02-.03 3.35-1.82 2.29 2.86-2.52 2.86-.03-.02a10.542 10.542 0 0 1 .98 3.38l.01-.03z" fill="#ea6453"/><path d="m64.74 18.21v4.47l-2.1.37v-3.05l-4.58-.81v.03a13.161 13.161 0 0 0 -1.64-3.96l.03.03 2.67-3.81-3.17-3.16-3.81 2.67.03.03a13.225 13.225 0 0 0 -3.96-1.65h.03l-.8-4.58h-2.69l.32-1.79h4.47l.8 4.58h-.03a12.972 12.972 0 0 1 3.96 1.65l-.03-.03 3.81-2.67 3.17 3.16-2.67 3.81-.03-.03a13.161 13.161 0 0 1 1.64 3.96v-.03z" fill="#d5d6db"/><g fill="#323c6b"><path d="m54.02 6.192a.5.5 0 0 1 -.288-.91l4.376-3.067a.5.5 0 0 1 .641.056l1.938 1.938a.5.5 0 0 1 -.708.707l-1.64-1.641-4.032 2.825a.5.5 0 0 1 -.287.092z"/><path d="m62.3 7.031a.5.5 0 0 1 -.354-.146l-.487-.485a.5.5 0 0 1 .707-.707l.488.489a.5.5 0 0 1 -.353.853z"/><path d="m7.1 49.083a.5.5 0 0 1 -.477-.35l-.144-.459a.5.5 0 0 1 .955-.3l.144.458a.5.5 0 0 1 -.328.627.519.519 0 0 1 -.15.024z"/><path d="m6.321 46.578a.5.5 0 0 1 -.477-.35l-.7-2.255a.5.5 0 0 1 .248-.594l3.7-1.913a.5.5 0 0 1 .459.889l-3.33 1.72.58 1.854a.5.5 0 0 1 -.328.626.493.493 0 0 1 -.152.023z"/></g><circle cx="47.302" cy="20.442" fill="#fff" r="7.269"/><path d="m47.3 28.211a7.769 7.769 0 1 1 7.768-7.769 7.778 7.778 0 0 1 -7.768 7.769zm0-14.538a6.769 6.769 0 1 0 6.768 6.769 6.777 6.777 0 0 0 -6.768-6.769z" fill="#323c6b"/><circle cx="50.345" cy="56.576" fill="#fff" r="5.963"/><path d="m50.35 63.04a6.564 6.564 0 0 1 -.725-.04 6.465 6.465 0 1 1 .725.04zm-.009-11.928a5.471 5.471 0 1 0 .612.035 5.474 5.474 0 0 0 -.612-.035z" fill="#323c6b"/><circle cx="22.066" cy="43.058" fill="#fff" r="5.388"/><path d="m22.069 48.947a5.892 5.892 0 1 1 1.753-.269 5.9 5.9 0 0 1 -1.753.269zm-.006-10.777a4.888 4.888 0 1 0 1.46 9.554 4.888 4.888 0 0 0 -1.46-9.554z" fill="#323c6b"/><path d="m24.34 56.393a.5.5 0 0 1 -.444-.271l-1.437-2.781a10.188 10.188 0 0 1 -2.615-.237l-1.911 2.481a.5.5 0 0 1 -.628.138l-2.938-1.538a.5.5 0 0 1 -.245-.595l.951-2.985a10.2 10.2 0 0 1 -1.683-2.015l-3.105.4a.509.509 0 0 1 -.542-.347l-.989-3.164a.5.5 0 0 1 .246-.591l2.781-1.436a10.156 10.156 0 0 1 .238-2.616l-2.48-1.912a.5.5 0 0 1 -.139-.624l1.538-2.937a.5.5 0 0 1 .6-.244l2.984.951a10.18 10.18 0 0 1 2.014-1.684l-.4-3.1a.5.5 0 0 1 .347-.542l3.165-.988a.5.5 0 0 1 .593.247l1.436 2.781a10.068 10.068 0 0 1 2.616.237l1.907-2.489a.5.5 0 0 1 .629-.138l2.937 1.539a.5.5 0 0 1 .244.594l-.951 2.984a10.2 10.2 0 0 1 1.684 2.015l3.105-.4a.508.508 0 0 1 .542.347l.988 3.164a.5.5 0 0 1 -.248.594l-2.78 1.436a10.245 10.245 0 0 1 -.238 2.616l2.481 1.911a.5.5 0 0 1 .138.628l-1.538 2.937a.5.5 0 0 1 -.593.241l-2.986-.951a10.191 10.191 0 0 1 -2.014 1.686l.4 3.1a.5.5 0 0 1 -.347.541l-3.165.99a.514.514 0 0 1 -.148.027zm-1.069-3.659 1.321 2.556 2.363-.739-.376-2.9a.489.489 0 0 1 .207-.594 9.246 9.246 0 0 0 2.314-1.932.5.5 0 0 1 .654-.092l.031.023 2.717.865 1.148-2.193-2.3-1.771a.487.487 0 0 1 -.294-.571 9.233 9.233 0 0 0 .274-3 .5.5 0 0 1 .409-.528l2.561-1.325-.738-2.364-2.9.376a.49.49 0 0 1 -.595-.207 9.207 9.207 0 0 0 -1.935-2.313.5.5 0 0 1 -.088-.658.261.261 0 0 1 .019-.027l.866-2.716-2.194-1.149-1.771 2.3a.486.486 0 0 1 -.571.293 9.223 9.223 0 0 0 -3-.274.492.492 0 0 1 -.529-.406l-1.324-2.561-2.363.738.376 2.9a.49.49 0 0 1 -.207.594 9.24 9.24 0 0 0 -2.314 1.935.5.5 0 0 1 -.662.086l-.023-.017-2.716-.863-1.149 2.194 2.3 1.772a.487.487 0 0 1 .292.57 9.177 9.177 0 0 0 -.273 3 .5.5 0 0 1 -.4.528h-.006l-2.561 1.32.738 2.363 2.9-.376a.491.491 0 0 1 .593.208 9.232 9.232 0 0 0 1.935 2.313.5.5 0 0 1 .088.658l-.021.029-.867 2.715 2.2 1.148 1.771-2.3a.485.485 0 0 1 .571-.294 9.282 9.282 0 0 0 3 .274.481.481 0 0 1 .529.4z" fill="#323c6b"/><path d="m50.573 71.5a.507.507 0 0 1 -.055 0l-3.647-.409a.5.5 0 0 1 -.443-.465l-.218-3.492a11.223 11.223 0 0 1 -2.59-1.434l-3.073 1.677a.5.5 0 0 1 -.63-.126l-2.29-2.868a.5.5 0 0 1 .016-.643l2.316-2.625a11.2 11.2 0 0 1 -.822-2.843l-3.357-.986a.5.5 0 0 1 -.356-.535l.408-3.647a.5.5 0 0 1 .466-.443l3.492-.218a11.246 11.246 0 0 1 1.432-2.591l-1.677-3.072a.5.5 0 0 1 .127-.631l2.867-2.289a.5.5 0 0 1 .643.016l2.625 2.316a11.284 11.284 0 0 1 2.842-.823l.987-3.357a.5.5 0 0 1 .535-.356l3.646.409a.5.5 0 0 1 .444.466l.218 3.492a11.223 11.223 0 0 1 2.59 1.432l3.074-1.678a.5.5 0 0 1 .629.127l2.29 2.868a.5.5 0 0 1 -.016.643l-2.317 2.624a11.262 11.262 0 0 1 .823 2.843l3.357.987a.5.5 0 0 1 .357.535l-.41 3.646a.5.5 0 0 1 -.465.444l-3.491.216a11.25 11.25 0 0 1 -1.433 2.59l1.678 3.073a.5.5 0 0 1 -.127.63l-2.869 2.289a.5.5 0 0 1 -.642-.015l-2.624-2.317a11.216 11.216 0 0 1 -2.844.823l-.986 3.357a.5.5 0 0 1 -.48.36zm-3.173-1.359 2.813.316.926-3.152a.488.488 0 0 1 .428-.466 10.26 10.26 0 0 0 3.222-.934.5.5 0 0 1 .641.187l.019.035 2.406 2.123 2.212-1.766-1.567-2.864a.487.487 0 0 1 -.045-.645 10.276 10.276 0 0 0 1.626-2.935.5.5 0 0 1 .585-.32h.01l3.231-.2.316-2.813-3.151-.925a.49.49 0 0 1 -.467-.428 10.247 10.247 0 0 0 -.934-3.223.5.5 0 0 1 .187-.64l.036-.019 2.123-2.407-1.766-2.211-2.865 1.564a.486.486 0 0 1 -.645.044 10.252 10.252 0 0 0 -2.934-1.624.5.5 0 0 1 -.322-.581v-.014l-.2-3.233-2.808-.31-.925 3.152a.49.49 0 0 1 -.429.465 10.262 10.262 0 0 0 -3.222.935.5.5 0 0 1 -.638-.184c-.007-.012-.015-.024-.021-.037l-2.407-2.131-2.212 1.766 1.565 2.866a.485.485 0 0 1 .043.643 10.274 10.274 0 0 0 -1.625 2.936.5.5 0 0 1 -.585.319h-.009l-3.233.2-.314 2.813 3.15.926a.489.489 0 0 1 .466.428 10.235 10.235 0 0 0 .935 3.222.5.5 0 0 1 -.186.639c-.012.008-.023.014-.036.021l-2.124 2.407 1.767 2.214 2.863-1.567a.487.487 0 0 1 .644-.044 10.247 10.247 0 0 0 2.935 1.625.5.5 0 0 1 .319.585v.01z" fill="#323c6b"/><path d="m49.539 38.384h-4.474a.5.5 0 0 1 -.492-.414l-.751-4.27a13.566 13.566 0 0 1 -3.433-1.425l-3.551 2.49a.5.5 0 0 1 -.641-.056l-3.163-3.163a.5.5 0 0 1 -.055-.64l2.489-3.553a13.545 13.545 0 0 1 -1.425-3.433l-4.27-.75a.5.5 0 0 1 -.413-.493v-4.471a.5.5 0 0 1 .413-.493l4.27-.751a13.612 13.612 0 0 1 1.425-3.433l-2.489-3.552a.5.5 0 0 1 .055-.641l3.166-3.162a.5.5 0 0 1 .641-.056l3.551 2.489a13.615 13.615 0 0 1 3.433-1.424l.751-4.269a.5.5 0 0 1 .492-.414h4.474a.5.5 0 0 1 .492.414l.751 4.269a13.622 13.622 0 0 1 3.434 1.424l3.552-2.489a.5.5 0 0 1 .64.056l3.159 3.162a.5.5 0 0 1 .056.641l-2.489 3.552a13.648 13.648 0 0 1 1.425 3.433l4.269.751a.5.5 0 0 1 .413.493v4.472a.5.5 0 0 1 -.413.493l-4.269.75a13.581 13.581 0 0 1 -1.425 3.433l2.489 3.553a.5.5 0 0 1 -.056.64l-3.162 3.163a.5.5 0 0 1 -.64.056l-3.552-2.49a13.573 13.573 0 0 1 -3.434 1.424l-.751 4.269a.5.5 0 0 1 -.492.415zm-4.054-1h3.634l.712-4.046a.489.489 0 0 1 .369-.523 12.6 12.6 0 0 0 3.81-1.583.5.5 0 0 1 .655.112.459.459 0 0 1 .035.051l3.3 2.311 2.568-2.569-2.344-3.345a.486.486 0 0 1 -.127-.641 12.579 12.579 0 0 0 1.583-3.809.491.491 0 0 1 .545-.383h.028l4-.7v-3.634l-4.053-.711a.491.491 0 0 1 -.522-.37 12.61 12.61 0 0 0 -1.583-3.81.5.5 0 0 1 .112-.654.508.508 0 0 1 .053-.038l2.309-3.295-2.569-2.569-3.35 2.346a.483.483 0 0 1 -.64.127 12.617 12.617 0 0 0 -3.81-1.582.5.5 0 0 1 -.384-.544l.005-.029-.7-4h-3.636l-.712 4.046a.486.486 0 0 1 -.37.523 12.611 12.611 0 0 0 -3.803 1.586.5.5 0 0 1 -.657-.113c-.012-.016-.023-.032-.034-.049l-3.3-2.311-2.571 2.569 2.345 3.345a.487.487 0 0 1 .127.64 12.559 12.559 0 0 0 -1.583 3.81.494.494 0 0 1 -.545.383h-.029l-4 .7v3.633l4.047.712a.493.493 0 0 1 .523.37 12.529 12.529 0 0 0 1.583 3.809.5.5 0 0 1 -.113.655.377.377 0 0 1 -.052.037l-2.31 3.3 2.569 2.569 3.346-2.345a.485.485 0 0 1 .641-.127 12.6 12.6 0 0 0 3.813 1.577.5.5 0 0 1 .383.544l-.005.029z" fill="#323c6b"/></svg>