<svg width="115" height="115" viewBox="0 0 115 115" fill="none" xmlns="http://www.w3.org/2000/svg">
<path d="M87.6718 51.1995L80.8953 37.8659C80.8048 37.6855 80.7896 37.4767 80.8531 37.2852C80.9166 37.0936 81.0536 36.9352 81.2339 36.8447C81.4142 36.7542 81.6231 36.739 81.8146 36.8025C82.0061 36.866 82.1646 37.003 82.2551 37.1833L88.4534 49.3904L91.9076 41.4042C91.9871 41.2194 92.1368 41.0737 92.3237 40.9992C92.5106 40.9247 92.7194 40.9276 92.9043 41.0071C93.0891 41.0866 93.2348 41.2362 93.3093 41.4231C93.3838 41.61 93.3809 41.8189 93.3014 42.0037L89.2243 51.4305C89.2104 51.4572 89.1998 51.4838 89.1859 51.5115L87.6718 51.1973V51.1995Z" fill="white"/>
<path d="M72.9397 52.3303L66.0067 44.7158L58.5338 44.7925C58.4323 44.797 58.3309 44.7811 58.2357 44.7456C58.1405 44.7101 58.0534 44.6558 57.9797 44.5859C57.9059 44.516 57.847 44.432 57.8065 44.3388C57.766 44.2456 57.7446 44.1452 57.7438 44.0436C57.7429 43.942 57.7625 43.8413 57.8015 43.7474C57.8404 43.6536 57.8979 43.5685 57.9705 43.4974C58.043 43.4263 58.1291 43.3705 58.2237 43.3334C58.3183 43.2963 58.4194 43.2786 58.521 43.2815L64.6362 43.2165L60.7603 38.9626C60.6933 38.889 60.6414 38.8029 60.6076 38.7092C60.5738 38.6155 60.5588 38.5161 60.5635 38.4166C60.5681 38.3172 60.5923 38.2196 60.6347 38.1295C60.677 38.0394 60.7367 37.9585 60.8104 37.8914C60.884 37.8244 60.9701 37.7725 61.0638 37.7387C61.1574 37.7049 61.2569 37.6899 61.3563 37.6946C61.4558 37.6992 61.5534 37.7234 61.6435 37.7658C61.7336 37.8081 61.8145 37.8678 61.8816 37.9415L70.1328 46.9924L71.614 39.9316C71.6349 39.8342 71.6748 39.7419 71.7313 39.6599C71.7879 39.5779 71.8601 39.5079 71.9438 39.4538C72.0274 39.3997 72.1209 39.3626 72.2189 39.3447C72.3169 39.3267 72.4174 39.3282 72.5148 39.3491C72.6122 39.37 72.7045 39.4099 72.7865 39.4665C72.8685 39.5231 72.9385 39.5953 72.9926 39.6789C73.0467 39.7626 73.0838 39.8561 73.1017 39.954C73.1197 40.052 73.1182 40.1526 73.0973 40.25L71.3936 48.383L73.9108 51.1441L72.9397 52.3303ZM47.0295 46.0532L46.8943 45.9755L29.8232 42.9173C29.725 42.9005 29.6311 42.8644 29.547 42.8109C29.4629 42.7575 29.3902 42.6879 29.3333 42.6062C29.2763 42.5245 29.2361 42.4322 29.2151 42.3348C29.1941 42.2374 29.1927 42.1368 29.2109 42.0389C29.2465 41.8404 29.3592 41.6641 29.5245 41.5486C29.6897 41.433 29.894 41.3876 30.0926 41.4223L38.8901 42.9993L37.0554 34.5873C37.0142 34.3893 37.0527 34.183 37.1625 34.0132C37.2724 33.8434 37.4447 33.7237 37.6421 33.6801C37.7397 33.6593 37.8403 33.6579 37.9384 33.676C38.0365 33.6942 38.13 33.7315 38.2136 33.7857C38.2973 33.84 38.3694 33.9103 38.4259 33.9924C38.4824 34.0746 38.5222 34.1671 38.543 34.2646L40.5086 43.2889L46.8698 44.424L52.5059 38.0895L47.1126 30.7486C46.9966 30.5861 46.9493 30.3844 46.9809 30.1872C47.0126 29.9901 47.1206 29.8133 47.2817 29.6953C47.4427 29.5772 47.6438 29.5273 47.8414 29.5565C48.0389 29.5856 48.217 29.6914 48.3371 29.851L53.5398 36.932L59.655 30.0682L58.0174 21.785C57.9981 21.6871 57.9982 21.5864 58.0179 21.4886C58.0375 21.3908 58.0762 21.2978 58.1318 21.2149C58.1873 21.1321 58.2587 21.061 58.3417 21.0057C58.4248 20.9504 58.5179 20.912 58.6158 20.8927C58.7137 20.8734 58.8144 20.8736 58.9122 20.8932C59.01 20.9128 59.103 20.9515 59.1859 21.0071C59.2687 21.0627 59.3398 21.134 59.3951 21.2171C59.4504 21.3001 59.4888 21.3932 59.5081 21.4911L61.0659 29.3889L73.1409 26.7034C73.3294 26.6765 73.5211 26.7215 73.6779 26.8297C73.8346 26.9378 73.9449 27.101 73.9867 27.2868C74.0284 27.4725 73.9987 27.6672 73.9033 27.832C73.8079 27.9969 73.654 28.1197 73.4721 28.176L60.8785 30.9722L48.3424 45.0576L48.1455 45.2812L47.0349 46.0532H47.0295Z" fill="white"/>
<path fill-rule="evenodd" clip-rule="evenodd" d="M95.9751 59.0833C95.5641 60.5368 94.5845 61.7049 93.2066 62.1713C91.8287 62.6377 90.3316 62.3108 89.123 61.4078C89.5319 59.9544 90.5073 58.7852 91.8916 58.3135C93.2758 57.8418 94.7602 58.1783 95.973 59.0802L95.9751 59.0833Z" fill="white"/>
<path fill-rule="evenodd" clip-rule="evenodd" d="M31.555 35.798C32.8732 35.7576 34.1106 36.2623 34.8708 37.2952C35.6311 38.328 35.744 39.6601 35.3106 40.907C33.9892 40.9485 32.7497 40.4406 31.9916 39.4099C31.2334 38.3791 31.1174 37.0471 31.555 35.798Z" fill="white"/>
<path fill-rule="evenodd" clip-rule="evenodd" d="M72.2231 61.18C71.5278 59.9629 71.3957 58.5499 71.9846 57.3317C72.5734 56.1136 73.7703 55.3501 75.1535 55.1393C75.8445 56.3564 75.9808 57.7662 75.392 58.9843C74.8031 60.2025 73.6052 60.9692 72.2231 61.18Z" fill="white"/>
<path fill-rule="evenodd" clip-rule="evenodd" d="M88.8154 55.9869C88.9986 54.3205 89.8483 52.8638 91.2752 52.0939C92.702 51.3241 94.3887 51.422 95.8773 52.1887C95.6941 53.8498 94.838 55.3086 93.4144 56.0732C91.9907 56.8377 90.304 56.7482 88.8154 55.9869Z" fill="white"/>
<path fill-rule="evenodd" clip-rule="evenodd" d="M88.4697 43.7309C89.3865 42.879 89.8774 41.7173 89.6985 40.5226C89.5196 39.3278 88.7146 38.3578 87.5955 37.8083C86.6755 38.6527 86.1846 39.824 86.3561 41.0188C86.5275 42.2135 87.3421 43.1825 88.4655 43.7309H88.4697Z" fill="white"/>
<path fill-rule="evenodd" clip-rule="evenodd" d="M26.4801 57.238C27.7025 57.0464 28.9047 57.3722 29.7225 58.239C30.5402 59.1057 30.8022 60.3207 30.5466 61.5282C29.3306 61.7177 28.1274 61.3897 27.3096 60.524C26.4918 59.6584 26.2267 58.4434 26.4801 57.238Z" fill="white"/>
<path fill-rule="evenodd" clip-rule="evenodd" d="M50.8606 73.7448C49.5828 73.1059 48.665 71.9793 48.485 70.6079C48.305 69.2364 48.8747 67.9118 49.9395 66.9492C51.2173 67.5944 52.1245 68.7178 52.313 70.0872C52.5015 71.4565 51.9201 72.7833 50.8627 73.7448H50.8606Z" fill="white"/>
<path fill-rule="evenodd" clip-rule="evenodd" d="M90.2001 37.4815C89.3238 36.9427 88.7285 36.0823 88.6732 35.0846C88.6178 34.0869 89.1129 33.1679 89.9318 32.5365C90.8134 33.0689 91.4076 33.9335 91.464 34.9302C91.5205 35.9269 91.0264 36.8469 90.2001 37.4858V37.4815Z" fill="white"/>
<path fill-rule="evenodd" clip-rule="evenodd" d="M50.514 60.2408C49.8687 59.2303 49.6909 58.0356 50.1392 56.9655C50.5875 55.8953 51.5745 55.1936 52.7501 54.9498C53.3943 55.9581 53.5732 57.155 53.1207 58.2262C52.6681 59.2974 51.6832 60.0002 50.514 60.2408Z" fill="white"/>
<path fill-rule="evenodd" clip-rule="evenodd" d="M84.8658 47.9242C84.5155 49.0411 83.7328 49.9303 82.6425 50.2614C81.5521 50.5926 80.4127 50.3008 79.498 49.5736C79.8452 48.4576 80.631 47.5685 81.7203 47.231C82.8096 46.8934 83.9564 47.1937 84.8658 47.9199V47.9242Z" fill="white"/>
<path fill-rule="evenodd" clip-rule="evenodd" d="M54.1523 23.8934C55.4098 25.1179 56.0625 26.7684 55.7761 28.4433C55.4897 30.1183 54.3216 31.4514 52.7254 32.1862C51.4732 30.9606 50.8194 29.3112 51.109 27.6394C51.3986 25.9676 52.5572 24.6281 54.1523 23.8934Z" fill="white"/>
<path fill-rule="evenodd" clip-rule="evenodd" d="M85.6569 37.3207C84.3035 36.4997 83.3889 35.1772 83.3069 33.646C83.2249 32.1148 83.9777 30.6965 85.2363 29.7264C86.5897 30.5506 87.499 31.8742 87.5863 33.4064C87.6736 34.9387 86.9102 36.3517 85.6569 37.3207Z" fill="white"/>
<path fill-rule="evenodd" clip-rule="evenodd" d="M19.3174 36.9651C20.8795 36.2612 22.6183 36.2612 24.0377 37.1248C25.4571 37.9884 26.2568 39.5323 26.3537 41.2435C24.7841 41.9495 23.0474 41.9537 21.6291 41.0891C20.2108 40.2245 19.4111 38.6794 19.3174 36.9651Z" fill="white"/>
<path fill-rule="evenodd" clip-rule="evenodd" d="M72.2699 33.9357C71.1113 34.6576 69.7505 34.8525 68.5366 34.3286C67.3227 33.8047 66.5316 32.6803 66.2686 31.3471C67.4217 30.622 68.789 30.4303 70.0018 30.9542C71.2146 31.4781 72.0036 32.6025 72.2699 33.9357Z" fill="white"/>
<path fill-rule="evenodd" clip-rule="evenodd" d="M69.137 21.6636C69.563 22.9137 69.449 24.2447 68.6888 25.2734C67.9285 26.302 66.6869 26.8088 65.3644 26.7577C64.9331 25.5129 65.0524 24.1777 65.8127 23.149C66.573 22.1204 67.8145 21.6146 69.137 21.6583V21.6636Z" fill="white"/>
<path fill-rule="evenodd" clip-rule="evenodd" d="M66.0553 34.6065C65.1832 35.1602 64.145 35.3018 63.2293 34.9057C62.3135 34.5096 61.7066 33.6546 61.5117 32.643C62.3838 32.0914 63.4156 31.9487 64.3356 32.3417C65.2556 32.7346 65.8604 33.5949 66.0553 34.6065Z" fill="white"/>
<path fill-rule="evenodd" clip-rule="evenodd" d="M19.4595 43.6393C20.7064 43.4945 21.9182 43.8704 22.7221 44.7787C23.526 45.6869 23.7475 46.9402 23.4408 48.1541C22.1982 48.3085 20.979 47.9337 20.1804 47.0201C19.3818 46.1065 19.1518 44.8606 19.4595 43.6393Z" fill="white"/>
<path fill-rule="evenodd" clip-rule="evenodd" d="M96.6854 44.752C96.6684 45.7625 96.235 46.6793 95.4172 47.2139C94.5995 47.7484 93.59 47.7878 92.6572 47.4087C92.6807 46.4046 93.1151 45.4835 93.9286 44.9479C94.7421 44.4123 95.7526 44.3772 96.6854 44.752Z" fill="white"/>
<path fill-rule="evenodd" clip-rule="evenodd" d="M25.055 33.4948C26.5255 33.2819 27.9747 33.6907 28.9543 34.747C29.934 35.8033 30.2321 37.276 29.9042 38.7252C28.4315 38.9381 26.9898 38.5314 26.0091 37.4772C25.0284 36.423 24.7313 34.9451 25.0507 33.4948H25.055Z" fill="white"/>
<path fill-rule="evenodd" clip-rule="evenodd" d="M65.147 18.5278C65.5729 19.7736 65.4589 21.1078 64.6997 22.1364C63.9405 23.165 62.6947 23.6719 61.3733 23.6271C60.9473 22.3771 61.0634 21.045 61.8205 20.0068C62.5776 18.9686 63.8245 18.4745 65.147 18.5267V18.5278Z" fill="white"/>
<path fill-rule="evenodd" clip-rule="evenodd" d="M83.6829 53.195C84.0364 54.855 83.6829 56.5428 82.5436 57.7428C81.4042 58.9429 79.7538 59.3869 78.0713 59.1271C77.7168 57.4606 78.0713 55.7782 79.2054 54.5814C80.3394 53.3845 82.0026 52.933 83.6776 53.1971L83.6829 53.195Z" fill="white"/>
<path fill-rule="evenodd" clip-rule="evenodd" d="M30.3068 30.7114C31.3237 30.6805 32.2735 31.0702 32.8539 31.8592C33.4342 32.6483 33.5258 33.6769 33.1893 34.6341C32.1788 34.665 31.2268 34.2764 30.6465 33.4863C30.0662 32.6962 29.9746 31.6708 30.3068 30.7114Z" fill="white"/>
<path fill-rule="evenodd" clip-rule="evenodd" d="M49.7271 19.7566C50.6738 20.6798 51.1657 21.9214 50.9464 23.1864C50.727 24.4514 49.8517 25.4491 48.6528 26.006C47.7051 25.0839 47.2142 23.8423 47.4271 22.5805C47.6401 21.3187 48.5292 20.3092 49.7282 19.7566H49.7271Z" fill="white"/>
<path fill-rule="evenodd" clip-rule="evenodd" d="M81.39 32.2692C80.3976 31.9827 79.599 31.3109 79.286 30.3525C78.9729 29.3942 79.2061 28.3847 79.828 27.5616C80.8257 27.8491 81.62 28.5274 81.9352 29.4783C82.2504 30.4292 82.0172 31.4461 81.39 32.2692Z" fill="white"/>
<path fill-rule="evenodd" clip-rule="evenodd" d="M24.9026 59.7649C24.8845 58.2901 24.2637 56.9325 23.0743 56.137C21.8849 55.3416 20.3942 55.2756 19.0195 55.8176C19.0376 57.2924 19.6584 58.65 20.8531 59.438C22.0479 60.2259 23.5322 60.3015 24.8994 59.7574L24.9026 59.7649Z" fill="white"/>
<path fill-rule="evenodd" clip-rule="evenodd" d="M19.3173 49.5139C20.9263 49.1167 22.5735 49.4074 23.7746 50.4722C24.9757 51.5371 25.4709 53.1343 25.2654 54.7794C23.6607 55.183 22.0102 54.8859 20.8134 53.8211C19.6165 52.7563 19.1161 51.159 19.3226 49.5107L19.3173 49.5139Z" fill="white"/>
<path fill-rule="evenodd" clip-rule="evenodd" d="M45.0215 35.2624C43.7235 35.5073 42.6267 36.2676 42.1135 37.4453C41.6002 38.6229 41.7706 39.9412 42.4649 41.0656C43.765 40.8197 44.8671 40.0572 45.3835 38.886C45.9 37.7147 45.7158 36.3868 45.0215 35.2656V35.2624Z" fill="white"/>
<path d="M54.6787 53.9861C54.6787 53.4974 55.0237 53.1013 55.4464 53.1013C55.8692 53.1013 56.211 53.4974 56.211 53.9861V71.7856C56.211 72.2732 55.8681 72.6694 55.4464 72.6694C55.0248 72.6694 54.6787 72.2732 54.6787 71.7856V53.9861Z" fill="white"/>
<path d="M60.4508 65.8481C60.4582 65.6502 60.5421 65.4628 60.6847 65.3253C60.8274 65.1879 61.0178 65.1111 61.2159 65.1111C61.414 65.1111 61.6044 65.1879 61.7471 65.3253C61.8897 65.4628 61.9736 65.6502 61.981 65.8481L58.5437 75.9213C58.5476 76.0244 58.5306 76.1273 58.4937 76.2238C58.4569 76.3202 58.401 76.4082 58.3294 76.4825C58.2578 76.5569 58.1719 76.616 58.0769 76.6564C57.9819 76.6968 57.8797 76.7176 57.7765 76.7176C57.6733 76.7176 57.5711 76.6968 57.4761 76.6564C57.3811 76.616 57.2953 76.5569 57.2236 76.4825C57.152 76.4082 57.0961 76.3202 57.0593 76.2238C57.0225 76.1273 57.0055 76.0244 57.0093 75.9213L60.4508 65.8471V65.8481Z" fill="white"/>
<path d="M54.7121 63.7089L48.7619 61.6741L47.8099 55.6153C47.7948 55.5172 47.7604 55.4231 47.7087 55.3383C47.657 55.2536 47.5891 55.1799 47.5088 55.1215C47.4286 55.0631 47.3376 55.0212 47.241 54.9981C47.1445 54.975 47.0444 54.9713 46.9464 54.987C46.7484 55.0193 46.5711 55.1282 46.4529 55.2903C46.3347 55.4523 46.2852 55.6544 46.3149 55.8527L47.1444 61.1204L31.0593 55.6153C30.868 55.552 30.6594 55.5665 30.4786 55.6555C30.2977 55.7445 30.1591 55.901 30.0925 56.0912C30.0292 56.2815 30.0438 56.489 30.133 56.6685C30.2221 56.848 30.3787 56.985 30.5685 57.0496L34.98 58.5648L55.1178 65.4467L54.7121 63.7132V63.7089Z" fill="white"/>
<path fill-rule="evenodd" clip-rule="evenodd" d="M66.3802 56.35C65.4676 55.5833 64.9533 54.4919 65.0662 53.3472C65.1791 52.2025 65.918 51.2367 66.9616 50.6692C67.8699 51.4391 68.3906 52.5262 68.2713 53.6752C68.152 54.8241 67.4194 55.7824 66.3802 56.3521V56.35Z" fill="white"/>
<path d="M77.3317 46.9871C77.4691 46.8438 77.657 46.7598 77.8555 46.753C78.0539 46.7461 78.2471 46.8169 78.3942 46.9503C78.5412 47.0838 78.6304 47.2693 78.6427 47.4674C78.6551 47.6656 78.5897 47.8608 78.4604 48.0114L63.357 64.7024L84.1859 59.9682C84.2838 59.9461 84.385 59.9435 84.4839 59.9606C84.5828 59.9776 84.6774 60.014 84.7622 60.0676C84.847 60.1212 84.9205 60.191 84.9784 60.2729C85.0362 60.3549 85.0774 60.4475 85.0995 60.5454C85.1216 60.6432 85.1242 60.7445 85.1071 60.8434C85.0901 60.9423 85.0537 61.0369 85.0001 61.1217C84.9465 61.2065 84.8768 61.28 84.7948 61.3379C84.7128 61.3957 84.6202 61.4369 84.5224 61.459L61.3403 66.7309C61.1825 66.7646 61.0181 66.7475 60.8706 66.6821C60.7232 66.6167 60.6002 66.5064 60.5192 66.3668C60.4383 66.2273 60.4035 66.0657 60.42 65.9052C60.4365 65.7447 60.5033 65.5935 60.6109 65.4733L77.3285 46.9871H77.3317Z" fill="white"/>
<path d="M25.645 64.7961C25.5448 64.7879 25.4473 64.7598 25.358 64.7135C25.2688 64.6673 25.1896 64.6038 25.125 64.5268C25.0605 64.4498 25.0118 64.3607 24.9819 64.2647C24.952 64.1687 24.9414 64.0678 24.9508 63.9677C24.97 63.7667 25.0673 63.5812 25.2218 63.4512C25.3763 63.3212 25.5757 63.257 25.7771 63.2724L37.2345 64.3372C37.4358 64.3575 37.6211 64.4559 37.7506 64.6115C37.88 64.767 37.9432 64.9672 37.9266 65.1688C37.9184 65.2677 37.8905 65.3639 37.8446 65.4519C37.7987 65.5398 37.7357 65.6177 37.6593 65.681L24.7314 76.918C24.6545 76.9826 24.5656 77.0314 24.4698 77.0617C24.3741 77.0919 24.2733 77.103 24.1732 77.0943C24.0731 77.0856 23.9758 77.0573 23.8866 77.011C23.7975 76.9646 23.7184 76.9012 23.6538 76.8243C23.5892 76.7474 23.5404 76.6585 23.5101 76.5627C23.4799 76.4669 23.4688 76.3661 23.4775 76.2661C23.4862 76.166 23.5145 76.0686 23.5608 75.9795C23.6072 75.8904 23.6706 75.8113 23.7475 75.7467L35.2816 65.6906L25.645 64.7961Z" fill="white"/>
<path d="M47.636 61.3035C47.8312 61.247 48.0408 61.2704 48.2187 61.3684C48.3966 61.4665 48.5283 61.6312 48.5848 61.8263C48.6413 62.0215 48.6179 62.2311 48.5199 62.409C48.4218 62.5869 48.2571 62.7186 48.062 62.7751L37.3744 65.8311C37.2779 65.8591 37.1769 65.8678 37.077 65.8567C36.9772 65.8456 36.8805 65.815 36.7925 65.7665C36.7045 65.7181 36.6269 65.6528 36.5642 65.5743C36.5014 65.4959 36.4547 65.4059 36.4267 65.3094C36.3988 65.2129 36.3901 65.1118 36.4012 65.012C36.4122 64.9121 36.4429 64.8155 36.4913 64.7275C36.5398 64.6395 36.6051 64.5619 36.6835 64.4991C36.762 64.4363 36.852 64.3896 36.9485 64.3617L47.6296 61.3035H47.636Z" fill="white"/>
<path d="M46.788 45.8084C46.7175 45.7358 46.6622 45.65 46.6252 45.5559C46.5882 45.4618 46.5703 45.3613 46.5724 45.2602C46.5746 45.1591 46.5968 45.0594 46.6378 44.967C46.6788 44.8745 46.7378 44.7912 46.8113 44.7217C46.8848 44.6523 46.9713 44.5981 47.0659 44.5623C47.1605 44.5266 47.2612 44.51 47.3623 44.5135C47.4634 44.517 47.5627 44.5406 47.6546 44.5828C47.7465 44.6251 47.829 44.6851 47.8975 44.7595L55.5205 52.8585L60.4985 49.4511C60.5765 49.3852 60.6669 49.3357 60.7644 49.3055C60.8619 49.2752 60.9644 49.2648 61.066 49.2749C61.1676 49.285 61.2661 49.3154 61.3557 49.3643C61.4453 49.4132 61.5241 49.4796 61.5876 49.5595C61.6511 49.6394 61.6978 49.7313 61.7251 49.8297C61.7524 49.928 61.7597 50.0308 61.7465 50.132C61.7333 50.2332 61.7 50.3308 61.6484 50.4189C61.5968 50.5069 61.5281 50.5837 61.4462 50.6448L55.9582 54.46C55.8093 54.5918 55.615 54.6606 55.4163 54.6519C55.2176 54.6431 55.0301 54.5575 54.8934 54.4131L46.788 45.8084Z" fill="white"/>
<path d="M60.2757 50.4126C60.1863 50.2344 60.1699 50.0283 60.2299 49.8382C60.2899 49.648 60.4217 49.4887 60.5972 49.3941C60.7727 49.2995 60.9782 49.277 61.17 49.3314C61.3619 49.3857 61.525 49.5127 61.6248 49.6853L66.8168 60.1312C66.9037 60.3092 66.9182 60.514 66.8573 60.7025C66.7963 60.891 66.6647 61.0485 66.49 61.142C66.3153 61.2355 66.1112 61.2576 65.9206 61.2037C65.7299 61.1499 65.5676 61.0242 65.4677 60.8531L60.2757 50.4126Z" fill="white"/>
<path d="M40.5356 43.7958C40.715 43.6987 40.9255 43.6768 41.121 43.7349C41.3165 43.793 41.4809 43.9264 41.5781 44.1057C41.6752 44.285 41.6972 44.4956 41.6391 44.6911C41.5809 44.8866 41.4476 45.051 41.2682 45.1482L36.4585 47.7548C36.3698 47.8054 36.272 47.8377 36.1707 47.8499C36.0693 47.8622 35.9666 47.854 35.8685 47.8259C35.7704 47.7978 35.6789 47.7504 35.5994 47.6865C35.5198 47.6226 35.4539 47.5434 35.4054 47.4536C35.3569 47.3638 35.3269 47.2652 35.317 47.1636C35.3072 47.0621 35.3178 46.9595 35.3481 46.8621C35.3785 46.7647 35.428 46.6743 35.4938 46.5963C35.5596 46.5183 35.6403 46.4542 35.7312 46.4078L40.5356 43.799V43.7958Z" fill="white"/>
<path d="M36.8979 52.7935C36.8518 52.5958 36.8862 52.3879 36.9935 52.2156C37.1007 52.0433 37.272 51.9206 37.4697 51.8746C37.6674 51.8285 37.8752 51.8629 38.0476 51.9701C38.2199 52.0774 38.3426 52.2487 38.3886 52.4464L39.9379 59.012C39.9834 59.2097 39.9485 59.4173 39.8408 59.5893C39.7332 59.7612 39.5617 59.8834 39.364 59.9288C39.1663 59.9743 38.9586 59.9394 38.7867 59.8317C38.6148 59.7241 38.4926 59.5526 38.4472 59.3549L36.8979 52.7935Z" fill="white"/>
<path d="M95.0698 48.7078C95.2674 48.6783 95.4686 48.7271 95.6307 48.8439C95.7927 48.9607 95.9027 49.1362 95.9372 49.3329C95.9716 49.5297 95.9278 49.7321 95.8151 49.897C95.7024 50.0619 95.5297 50.1763 95.3339 50.2156L89.0579 51.537L85.2916 60.4485L91.4292 64.8589C91.5147 64.9159 91.5878 64.9895 91.6442 65.0753C91.7006 65.1611 91.7391 65.2575 91.7574 65.3585C91.7758 65.4595 91.7736 65.5632 91.751 65.6634C91.7284 65.7636 91.6858 65.8582 91.6259 65.9416C91.5659 66.0249 91.4897 66.0954 91.4019 66.1487C91.3142 66.202 91.2165 66.237 91.1149 66.2518C91.0133 66.2665 90.9097 66.2606 90.8104 66.2344C90.7111 66.2083 90.6181 66.1624 90.5369 66.0994L83.9159 61.3333C83.7741 61.2337 83.6706 61.0885 83.6225 60.922C83.5745 60.7554 83.5848 60.5775 83.6518 60.4176L87.7865 50.6117C87.8291 50.4794 87.9072 50.3613 88.0124 50.2705C88.1176 50.1796 88.2457 50.1193 88.3828 50.0963L95.0698 48.7121V48.7078Z" fill="white"/>
<path d="M74.2069 63.7579C74.1246 63.7002 74.0545 63.6269 74.0005 63.5421C73.9466 63.4574 73.9098 63.3628 73.8924 63.2638C73.875 63.1648 73.8773 63.0634 73.8991 62.9653C73.9209 62.8672 73.9618 62.7743 74.0195 62.692C74.0772 62.6098 74.1505 62.5396 74.2353 62.4857C74.32 62.4317 74.4146 62.395 74.5136 62.3776C74.6126 62.3602 74.714 62.3624 74.8121 62.3842C74.9102 62.406 75.0031 62.447 75.0853 62.5046L82.3548 68.5964C82.4373 68.6537 82.5076 68.7266 82.5618 68.8111C82.6161 68.8955 82.6532 68.9898 82.671 69.0886C82.6888 69.1874 82.6869 69.2887 82.6656 69.3868C82.6442 69.4849 82.6037 69.5778 82.5465 69.6602C82.4892 69.7426 82.4163 69.813 82.3318 69.8672C82.2474 69.9215 82.1531 69.9585 82.0543 69.9763C81.9555 69.9941 81.8542 69.9923 81.7561 69.9709C81.6581 69.9496 81.5652 69.9091 81.4827 69.8519L74.2069 63.7579Z" fill="white"/>
<path fill-rule="evenodd" clip-rule="evenodd" d="M31.5296 78.5056C33.5869 78.6632 35.5504 77.9551 36.8015 76.4015C38.0527 74.8479 38.3231 72.7811 37.729 70.7995C35.676 70.6441 33.7146 71.349 32.4581 72.9036C31.2017 74.4582 30.9344 76.5293 31.5296 78.5056Z" fill="white"/>
<path fill-rule="evenodd" clip-rule="evenodd" d="M73.4895 69.1214C73.0327 67.9703 72.1265 67.0982 70.9574 66.8246C69.7882 66.5509 68.5892 66.9588 67.6777 67.801C68.1356 68.9574 69.0364 69.8306 70.212 70.101C71.3875 70.3715 72.5759 69.9626 73.4895 69.1214Z" fill="white"/>
<path fill-rule="evenodd" clip-rule="evenodd" d="M19.2617 70.6909C19.8527 69.2417 20.9942 68.1482 22.4679 67.8287C23.9416 67.5093 25.4494 68.0183 26.5834 69.0873C25.9967 70.5323 24.8488 71.629 23.3751 71.9517C21.9014 72.2743 20.4 71.7611 19.2628 70.6909H19.2617Z" fill="white"/>
<path fill-rule="evenodd" clip-rule="evenodd" d="M25.9999 77.166C25.9999 77.7136 25.8376 78.2489 25.5334 78.7041C25.2291 79.1594 24.7968 79.5143 24.2909 79.7238C23.785 79.9334 23.2283 79.9882 22.6913 79.8814C22.1543 79.7745 21.661 79.5109 21.2738 79.1237C20.8866 78.7365 20.6229 78.2432 20.5161 77.7062C20.4093 77.1691 20.4641 76.6125 20.6736 76.1066C20.8832 75.6007 21.238 75.1683 21.6933 74.8641C22.1486 74.5599 22.6838 74.3975 23.2314 74.3975C23.9657 74.3975 24.6699 74.6892 25.1891 75.2084C25.7082 75.7276 25.9999 76.4318 25.9999 77.166Z" fill="white"/>
<path fill-rule="evenodd" clip-rule="evenodd" d="M25.8995 63.8197C25.8997 64.348 25.7432 64.8645 25.4496 65.3038C25.1561 65.7431 24.7388 66.0854 24.2506 66.2874C23.7624 66.4894 23.2253 66.542 22.7072 66.4385C22.189 66.335 21.7133 66.0801 21.3402 65.7061C20.967 65.332 20.7133 64.8557 20.611 64.3373C20.5088 63.819 20.5626 63.282 20.7658 62.7942C20.969 62.3065 21.3123 61.8901 21.7523 61.5976C22.1923 61.3051 22.7092 61.1498 23.2375 61.1513C23.9441 61.1529 24.6212 61.4348 25.1202 61.9351C25.6193 62.4353 25.8995 63.1131 25.8995 63.8197Z" fill="white"/>
<path fill-rule="evenodd" clip-rule="evenodd" d="M40.3899 33.8888C40.3901 34.417 40.2337 34.9334 39.9405 35.3727C39.6472 35.8119 39.2302 36.1544 38.7423 36.3567C38.2544 36.559 37.7175 36.6121 37.1994 36.5093C36.6813 36.4065 36.2054 36.1523 35.8318 35.779C35.4581 35.4056 35.2036 34.9299 35.1004 34.4119C34.9971 33.8939 35.0498 33.3569 35.2517 32.8689C35.4536 32.3808 35.7958 31.9636 36.2348 31.67C36.6739 31.3763 37.1901 31.2195 37.7183 31.2193C38.4265 31.2193 39.1057 31.5005 39.6067 32.001C40.1076 32.5016 40.3894 33.1806 40.3899 33.8888Z" fill="white"/>
<path fill-rule="evenodd" clip-rule="evenodd" d="M39.9145 52.3889C39.9145 52.8413 39.7803 53.2836 39.529 53.6598C39.2777 54.0361 38.9205 54.3294 38.5026 54.5027C38.0847 54.676 37.6247 54.7215 37.1809 54.6334C36.7371 54.5454 36.3294 54.3278 36.0092 54.0081C35.6891 53.6884 35.4709 53.2809 35.3823 52.8372C35.2936 52.3936 35.3385 51.9336 35.5112 51.5154C35.6839 51.0972 35.9767 50.7396 36.3526 50.4878C36.7284 50.236 37.1705 50.1012 37.623 50.1006C38.2303 50.1003 38.8128 50.3412 39.2425 50.7703C39.6722 51.1994 39.9139 51.7816 39.9145 52.3889Z" fill="white"/>
<path fill-rule="evenodd" clip-rule="evenodd" d="M49.732 29.6945C49.7322 30.1475 49.5981 30.5903 49.3465 30.967C49.0949 31.3437 48.7373 31.6373 48.3188 31.8106C47.9003 31.984 47.4398 32.0293 46.9955 31.9408C46.5513 31.8523 46.1433 31.6341 45.8231 31.3136C45.503 30.9932 45.2851 30.5849 45.197 30.1406C45.1089 29.6963 45.1547 29.2358 45.3284 28.8175C45.5021 28.3991 45.7961 28.0418 46.173 27.7905C46.5499 27.5393 46.9929 27.4056 47.4459 27.4062C48.0524 27.4068 48.6339 27.6481 49.0625 28.0772C49.4912 28.5062 49.732 29.088 49.732 29.6945Z" fill="white"/>
<path fill-rule="evenodd" clip-rule="evenodd" d="M60.3125 44.1898C60.3119 44.6418 60.1773 45.0835 59.9257 45.4591C59.6741 45.8346 59.3168 46.1271 58.899 46.2997C58.4813 46.4722 58.0217 46.517 57.5784 46.4285C57.1352 46.3399 56.7281 46.1219 56.4087 45.802C56.0893 45.4822 55.8719 45.0748 55.7839 44.6314C55.696 44.1881 55.7414 43.7286 55.9146 43.311C56.0877 42.8934 56.3807 42.5366 56.7566 42.2855C57.1325 42.0345 57.5744 41.9005 58.0264 41.9005C58.3268 41.9006 58.6243 41.9599 58.9018 42.0751C59.1794 42.1902 59.4315 42.3589 59.6438 42.5715C59.8561 42.7841 60.0244 43.0364 60.1392 43.3141C60.2539 43.5918 60.3128 43.8894 60.3125 44.1898Z" fill="white"/>
<path fill-rule="evenodd" clip-rule="evenodd" d="M63.0733 37.9862C63.0731 38.4383 62.9389 38.8801 62.6876 39.2559C62.4363 39.6317 62.0792 39.9246 61.6615 40.0975C61.2438 40.2704 60.7842 40.3156 60.3409 40.2273C59.8975 40.1391 59.4902 39.9213 59.1706 39.6017C58.8509 39.282 58.6332 38.8748 58.545 38.4314C58.4567 37.988 58.5019 37.5284 58.6748 37.1107C58.8477 36.6931 59.1406 36.336 59.5163 36.0847C59.8921 35.8334 60.334 35.6992 60.7861 35.699C61.0865 35.6988 61.384 35.7579 61.6615 35.8728C61.9391 35.9877 62.1913 36.1562 62.4037 36.3686C62.6161 36.581 62.7846 36.8332 62.8995 37.1107C63.0144 37.3883 63.0734 37.6858 63.0733 37.9862Z" fill="white"/>
<path fill-rule="evenodd" clip-rule="evenodd" d="M74.8977 39.3193C74.8981 39.7718 74.7643 40.2142 74.5132 40.5906C74.2622 40.967 73.9051 41.2605 73.4872 41.434C73.0693 41.6074 72.6094 41.653 72.1656 41.565C71.7217 41.477 71.314 41.2593 70.9939 40.9395C70.6738 40.6197 70.4558 40.2122 70.3673 39.7685C70.2789 39.3247 70.3241 38.8647 70.4971 38.4467C70.6702 38.0286 70.9634 37.6713 71.3395 37.4199C71.7157 37.1684 72.158 37.0342 72.6105 37.0342C73.2165 37.0348 73.7976 37.2757 74.2264 37.704C74.6551 38.1324 74.8965 38.7133 74.8977 39.3193Z" fill="white"/>
<path fill-rule="evenodd" clip-rule="evenodd" d="M83.6651 37.0342C83.6649 37.4865 83.5305 37.9285 83.2791 38.3044C83.0276 38.6803 82.6703 38.9731 82.2523 39.1459C81.8344 39.3187 81.3746 39.3636 80.9311 39.275C80.4876 39.1864 80.0804 38.9683 79.7609 38.6482C79.4414 38.3281 79.224 37.9205 79.1362 37.4768C79.0485 37.0332 79.0943 36.5735 79.2678 36.1558C79.4414 35.7382 79.7349 35.3814 80.1112 35.1307C80.4876 34.8799 80.9299 34.7464 81.3821 34.747C81.6823 34.747 81.9795 34.8062 82.2568 34.9212C82.534 35.0362 82.7859 35.2047 82.9979 35.4172C83.21 35.6296 83.3781 35.8818 83.4925 36.1593C83.607 36.4367 83.6656 36.7341 83.6651 37.0342Z" fill="white"/>
<path fill-rule="evenodd" clip-rule="evenodd" d="M94.8209 41.038C94.8213 41.4909 94.6874 41.9338 94.436 42.3106C94.1847 42.6873 93.8272 42.9811 93.4089 43.1547C92.9905 43.3282 92.5301 43.3738 92.0858 43.2856C91.6416 43.1975 91.2334 42.9795 90.9131 42.6593C90.5928 42.3391 90.3746 41.9311 90.2862 41.4869C90.1978 41.0426 90.2432 40.5822 90.4166 40.1637C90.5899 39.7453 90.8835 39.3877 91.2602 39.1362C91.6369 38.8847 92.0797 38.7505 92.5326 38.7507C92.8331 38.7505 93.1307 38.8094 93.4084 38.9242C93.6861 39.0391 93.9384 39.2075 94.1509 39.42C94.3635 39.6324 94.532 39.8846 94.647 40.1623C94.7619 40.4399 94.821 40.7375 94.8209 41.038Z" fill="white"/>
<path fill-rule="evenodd" clip-rule="evenodd" d="M80.3295 46.8519C80.3293 47.3045 80.1948 47.747 79.9431 48.1232C79.6914 48.4994 79.3338 48.7926 78.9154 48.9655C78.4971 49.1384 78.0369 49.1834 77.593 49.0947C77.1491 49.0061 76.7414 48.7877 76.4216 48.4673C76.1019 48.147 75.8843 47.7389 75.7964 47.2949C75.7086 46.8508 75.7544 46.3907 75.9281 45.9726C76.1019 45.5546 76.3956 45.1975 76.7723 44.9465C77.149 44.6955 77.5917 44.5619 78.0444 44.5625C78.3449 44.5622 78.6425 44.6213 78.9202 44.7363C79.1978 44.8513 79.45 45.02 79.6623 45.2327C79.8746 45.4454 80.0429 45.6979 80.1573 45.9757C80.2718 46.2536 80.3303 46.5513 80.3295 46.8519Z" fill="white"/>
<path fill-rule="evenodd" clip-rule="evenodd" d="M60.7862 20.9258C60.7851 21.3777 60.6501 21.8193 60.3982 22.1945C60.1463 22.5698 59.7889 22.862 59.371 23.0342C58.9531 23.2064 58.4935 23.2508 58.0504 23.1619C57.6072 23.073 57.2004 22.8548 56.8812 22.5347C56.5621 22.2147 56.3449 21.8072 56.2573 21.3638C56.1696 20.9204 56.2154 20.461 56.3887 20.0436C56.5621 19.6262 56.8552 19.2695 57.2312 19.0187C57.6072 18.7678 58.0491 18.6341 58.5011 18.6343C58.8017 18.6343 59.0994 18.6936 59.377 18.8088C59.6547 18.9241 59.9069 19.093 60.1191 19.3058C60.3314 19.5187 60.4996 19.7714 60.6141 20.0493C60.7285 20.3273 60.787 20.6251 60.7862 20.9258Z" fill="white"/>
<path fill-rule="evenodd" clip-rule="evenodd" d="M75.6606 27.3093C75.661 27.7617 75.5273 28.2041 75.2764 28.5805C75.0255 28.957 74.6686 29.2506 74.2509 29.4243C73.8332 29.598 73.3734 29.644 72.9295 29.5565C72.4857 29.4689 72.0777 29.2518 71.7572 28.9325C71.4367 28.6132 71.2181 28.2061 71.1289 27.7625C71.0397 27.319 71.084 26.859 71.2561 26.4406C71.4283 26.0223 71.7206 25.6643 72.0961 25.412C72.4716 25.1597 72.9135 25.0244 73.3659 25.0231C73.6667 25.0224 73.9647 25.081 74.2429 25.1956C74.5211 25.3101 74.7739 25.4783 74.987 25.6907C75.2001 25.903 75.3693 26.1552 75.4849 26.4329C75.6004 26.7107 75.6601 27.0085 75.6606 27.3093Z" fill="white"/>
<path fill-rule="evenodd" clip-rule="evenodd" d="M49.2564 54.6687C49.2583 55.1219 49.1257 55.5654 48.8753 55.9432C48.6249 56.3209 48.268 56.6158 47.8498 56.7906C47.4317 56.9653 46.9711 57.012 46.5263 56.9248C46.0816 56.8375 45.6728 56.6203 45.3517 56.3005C45.0305 55.9807 44.8115 55.5728 44.7224 55.1284C44.6333 54.6841 44.6781 54.2233 44.8511 53.8044C45.0241 53.3855 45.3175 53.0274 45.6942 52.7754C46.0709 52.5234 46.5139 52.3889 46.9671 52.3889C47.5726 52.3889 48.1534 52.6288 48.5825 53.0561C49.0116 53.4833 49.2539 54.0632 49.2564 54.6687Z" fill="white"/>
<path fill-rule="evenodd" clip-rule="evenodd" d="M31.7174 41.8962C31.7182 42.3492 31.5846 42.7924 31.3335 43.1695C31.0823 43.5465 30.725 43.8406 30.3066 44.0145C29.8882 44.1884 29.4277 44.2342 28.9832 44.1462C28.5388 44.0581 28.1305 43.8402 27.81 43.52C27.4894 43.1998 27.2712 42.7917 27.1827 42.3473C27.0943 41.903 27.1397 41.4424 27.3131 41.0238C27.4866 40.6053 27.7804 40.2477 28.1572 39.9962C28.5341 39.7447 28.9771 39.6107 29.4302 39.6111C30.0364 39.6111 30.6178 39.8518 31.0467 40.2802C31.4756 40.7087 31.7168 41.2899 31.7174 41.8962Z" fill="white"/>
<path fill-rule="evenodd" clip-rule="evenodd" d="M38.003 47.232C38.003 47.6842 37.8689 48.1262 37.6177 48.5021C37.3665 48.8781 37.0094 49.1711 36.5917 49.3442C36.174 49.5172 35.7143 49.5625 35.2708 49.4742C34.8273 49.386 34.42 49.1683 34.1003 48.8486C33.7805 48.5289 33.5628 48.1215 33.4746 47.678C33.3864 47.2346 33.4317 46.7749 33.6047 46.3571C33.7777 45.9394 34.0707 45.5824 34.4467 45.3311C34.8227 45.0799 35.2647 44.9459 35.7168 44.9459C36.0171 44.9457 36.3144 45.0048 36.5919 45.1196C36.8693 45.2344 37.1214 45.4028 37.3337 45.6152C37.546 45.8275 37.7144 46.0795 37.8292 46.357C37.9441 46.6344 38.0031 46.9318 38.003 47.232Z" fill="white"/>
<path d="M39.5495 63.9549L49.7046 75.4176L57.1754 75.342C57.3719 75.3474 57.5587 75.4287 57.6964 75.569C57.8342 75.7092 57.9121 75.8975 57.9139 76.094C57.9157 76.2906 57.8412 76.4802 57.706 76.623C57.5709 76.7657 57.3856 76.8505 57.1892 76.8594L51.0719 76.9233L54.9499 81.174C55.0839 81.3246 55.1532 81.5218 55.1428 81.7231C55.1325 81.9244 55.0433 82.1135 54.8946 82.2495C54.7458 82.3826 54.5506 82.4516 54.3512 82.4416C54.1519 82.4317 53.9645 82.3435 53.8297 82.1962L45.5764 73.1453L44.0941 80.2008C44.053 80.3985 43.9351 80.5717 43.7663 80.6825C43.5974 80.7932 43.3915 80.8323 43.1938 80.7912C42.9961 80.7501 42.8229 80.6322 42.7122 80.4633C42.6014 80.2945 42.5623 80.0886 42.6034 79.8909L44.3071 71.7611L38.5752 65.1454L39.5495 63.9549ZM68.6807 74.0866L68.8106 74.1643L85.8828 77.2161C85.982 77.233 86.0769 77.2694 86.162 77.3232C86.247 77.3771 86.3206 77.4472 86.3783 77.5296C86.4361 77.6121 86.477 77.7051 86.4985 77.8034C86.5201 77.9017 86.522 78.0034 86.504 78.1024C86.4861 78.2014 86.4487 78.2959 86.394 78.3804C86.3393 78.4649 86.2683 78.5377 86.1853 78.5946C86.1023 78.6515 86.0088 78.6914 85.9103 78.7119C85.8117 78.7325 85.7101 78.7333 85.6113 78.7143L76.8116 77.1405L78.6452 85.5525C78.6876 85.7502 78.6497 85.9566 78.5399 86.1264C78.43 86.2961 78.2573 86.4153 78.0596 86.4576C77.8619 86.5 77.6555 86.4621 77.4858 86.3523C77.316 86.2424 77.1969 86.0697 77.1545 85.872L75.1867 76.8455L68.8404 75.7136L63.1969 82.0482L68.5934 89.3859C68.6524 89.4663 68.695 89.5575 68.7187 89.6544C68.7425 89.7512 68.7469 89.8518 68.7318 89.9504C68.7167 90.049 68.6823 90.1436 68.6306 90.2289C68.5789 90.3142 68.5109 90.3885 68.4305 90.4475C68.3501 90.5065 68.2588 90.5491 68.162 90.5728C68.0651 90.5966 67.9645 90.601 67.8659 90.5859C67.7673 90.5708 67.6727 90.5364 67.5874 90.4847C67.5021 90.433 67.4279 90.365 67.3689 90.2846L62.1619 83.2078L56.0509 90.0727L57.6939 98.3527C57.7266 98.5486 57.6816 98.7495 57.5684 98.9127C57.4552 99.0759 57.2828 99.1885 57.0879 99.2265C56.8929 99.2645 56.6909 99.2249 56.5246 99.1162C56.3584 99.0075 56.2412 98.8383 56.1979 98.6444L54.6422 90.7563L42.5661 93.4396C42.4681 93.4634 42.3664 93.4674 42.2668 93.4514C42.1673 93.4353 42.0719 93.3996 41.9863 93.3463C41.9007 93.2929 41.8267 93.2231 41.7684 93.1407C41.7102 93.0584 41.6689 92.9653 41.6471 92.8669C41.6253 92.7684 41.6234 92.6666 41.6414 92.5674C41.6594 92.4682 41.697 92.3736 41.7521 92.2891C41.8071 92.2046 41.8784 92.1319 41.9619 92.0753C42.0454 92.0187 42.1393 91.9794 42.2382 91.9595L54.8307 89.1623L67.371 75.079L67.568 74.8554L68.6807 74.0866Z" fill="white"/>
<path fill-rule="evenodd" clip-rule="evenodd" d="M84.1528 84.3386C82.8303 84.3812 81.5973 83.8744 80.8338 82.8479C80.0703 81.8214 79.9681 80.4808 80.394 79.2329C81.7123 79.185 82.9496 79.6982 83.7109 80.7236C84.4723 81.749 84.5819 83.0875 84.1486 84.3355L84.1528 84.3386Z" fill="white"/>
<path fill-rule="evenodd" clip-rule="evenodd" d="M25.503 82.6616C26.3836 83.2004 26.9745 84.0618 27.0278 85.0563C27.081 86.0509 26.5955 86.973 25.7766 87.6119C24.8939 87.0795 24.3008 86.2148 24.2454 85.215C24.1901 84.2151 24.6841 83.2983 25.503 82.6658V82.6616Z" fill="white"/>
<path fill-rule="evenodd" clip-rule="evenodd" d="M61.5463 96.2465C60.2941 95.0198 59.6403 93.3715 59.9289 91.6954C60.2175 90.0194 61.3813 88.6852 62.9721 87.9515C64.2308 89.1761 64.8888 90.8265 64.5971 92.5015C64.3053 94.1765 63.1436 95.5139 61.5463 96.2465Z" fill="white"/>
<path fill-rule="evenodd" clip-rule="evenodd" d="M30.0456 82.816C31.4054 83.6391 32.3148 84.9616 32.4021 86.496C32.4894 88.0304 31.7249 89.4444 30.4726 90.4134C29.1139 89.5871 28.2056 88.2657 28.1173 86.7356C28.0289 85.2054 28.7955 83.7839 30.0456 82.816Z" fill="white"/>
<path fill-rule="evenodd" clip-rule="evenodd" d="M96.3916 83.1716C94.8242 83.8765 93.0907 83.8765 91.6691 83.014C90.2476 82.1515 89.4533 80.6022 89.3574 78.8932C90.9216 78.1904 92.6584 78.1872 94.0799 79.0508C95.5014 79.9144 96.2968 81.4615 96.3916 83.1716Z" fill="white"/>
<path fill-rule="evenodd" clip-rule="evenodd" d="M43.4443 86.2031C44.5965 85.4759 45.9648 85.2863 47.1776 85.8102C48.3904 86.3341 49.1805 87.4575 49.4382 88.7917C48.2871 89.5136 46.9252 89.7074 45.7113 89.1857C44.4974 88.6639 43.6999 87.5395 43.4443 86.2031Z" fill="white"/>
<path fill-rule="evenodd" clip-rule="evenodd" d="M46.5666 98.4741C46.1407 97.2229 46.2557 95.893 47.0192 94.8644C47.7826 93.8358 49.0189 93.33 50.3435 93.3736C50.7694 94.6237 50.6544 95.9537 49.892 96.9844C49.1296 98.0151 47.8881 98.5167 46.5666 98.4751V98.4741Z" fill="white"/>
<path fill-rule="evenodd" clip-rule="evenodd" d="M49.6484 85.5323C50.5269 84.9808 51.5598 84.8381 52.4787 85.2352C53.3976 85.6324 53.9982 86.4832 54.2005 87.4969C53.3263 88.0474 52.2892 88.1933 51.3734 87.7972C50.4577 87.4011 49.8518 86.5428 49.6484 85.5323Z" fill="white"/>
<path fill-rule="evenodd" clip-rule="evenodd" d="M96.2438 76.4953C95.0022 76.6465 93.7894 76.2716 92.9866 75.3612C92.1837 74.4508 91.9611 73.2007 92.2678 71.9836C93.5136 71.8346 94.7233 72.2094 95.5229 73.1177C96.3226 74.0259 96.5537 75.2782 96.2438 76.4953Z" fill="white"/>
<path fill-rule="evenodd" clip-rule="evenodd" d="M77.0053 93.7452C75.7627 93.8954 74.5466 93.5227 73.7448 92.6112C72.943 91.6997 72.7184 90.4518 73.0229 89.2358C74.2655 89.0803 75.4847 89.4572 76.2844 90.3687C77.0841 91.2802 77.312 92.5303 77.0053 93.7452Z" fill="white"/>
<path fill-rule="evenodd" clip-rule="evenodd" d="M43.0241 30.3749C41.4513 30.5655 39.9191 30.0917 38.9043 28.9449C37.8895 27.7981 37.6148 26.2157 37.9992 24.6782C39.5709 24.4886 41.1053 24.9625 42.1136 26.1125C43.122 27.2625 43.4085 28.8384 43.0241 30.3717V30.3749Z" fill="white"/>
<path fill-rule="evenodd" clip-rule="evenodd" d="M90.6479 86.6408C89.1837 86.8537 87.7335 86.447 86.756 85.3939C85.7785 84.3408 85.4782 82.8628 85.804 81.4157C87.2713 81.2028 88.7216 81.6085 89.6991 82.6616C90.6766 83.7147 90.9769 85.1905 90.6479 86.6408Z" fill="white"/>
<path fill-rule="evenodd" clip-rule="evenodd" d="M50.5587 101.61C50.1328 100.361 50.2478 99.0299 51.0124 98.0024C51.7769 96.9748 53.0153 96.468 54.3367 96.5116C54.7626 97.7596 54.6466 99.0938 53.8884 100.124C53.1303 101.153 51.8876 101.657 50.5587 101.607V101.61Z" fill="white"/>
<path fill-rule="evenodd" clip-rule="evenodd" d="M85.3983 89.4264C84.3867 89.4615 83.4347 89.0686 82.8512 88.2774C82.2677 87.4863 82.1804 86.4672 82.5147 85.5089C83.5306 85.477 84.4793 85.8646 85.0618 86.6568C85.6442 87.449 85.7337 88.4733 85.3983 89.4317V89.4264Z" fill="white"/>
<path fill-rule="evenodd" clip-rule="evenodd" d="M65.976 100.378C65.0294 99.4601 64.5395 98.2153 64.7589 96.9546C64.9782 95.6938 65.8546 94.6812 67.0557 94.1328C68.0034 95.0528 68.4953 96.2986 68.2781 97.5573C68.0609 98.8159 67.1792 99.8296 65.976 100.378Z" fill="white"/>
<path fill-rule="evenodd" clip-rule="evenodd" d="M34.3176 87.8696C35.3101 88.1571 36.1055 88.8343 36.4207 89.7788C36.7358 90.7233 36.4973 91.7487 35.8765 92.5707C34.8852 92.2854 34.0834 91.6124 33.7725 90.6615C33.4615 89.7106 33.6915 88.6927 34.3176 87.8696Z" fill="white"/>
<path fill-rule="evenodd" clip-rule="evenodd" d="M96.387 70.6217C94.7823 71.0231 93.1329 70.7282 91.9286 69.6634C90.7243 68.5985 90.2387 66.9949 90.4379 65.353C92.0436 64.9516 93.6919 65.2465 94.8952 66.3113C96.0984 67.3761 96.5925 68.9734 96.3859 70.6206L96.387 70.6217Z" fill="white"/>
<path fill-rule="evenodd" clip-rule="evenodd" d="M70.6816 84.8764C71.9796 84.6326 73.0785 83.8649 73.5938 82.6957C74.1092 81.5265 73.9325 80.1976 73.2382 79.0753C71.9391 79.3213 70.8413 80.088 70.3238 81.2582C69.8063 82.4284 69.9884 83.7541 70.6816 84.8786V84.8764Z" fill="white"/>
<path fill-rule="evenodd" clip-rule="evenodd" d="M75.3174 86.25C75.3172 85.7215 75.4737 85.2048 75.7672 84.7653C76.0607 84.3258 76.4779 83.9832 76.9661 83.7808C77.4544 83.5785 77.9916 83.5255 78.51 83.6286C79.0283 83.7316 79.5044 83.9861 79.8781 84.3598C80.2518 84.7335 80.5063 85.2096 80.6094 85.728C80.7124 86.2463 80.6594 86.7836 80.4571 87.2718C80.2547 87.76 79.9121 88.1772 79.4726 88.4707C79.0331 88.7642 78.5164 88.9207 77.9879 88.9205C77.6369 88.9217 77.2892 88.8533 76.9646 88.7195C76.6401 88.5857 76.3453 88.3891 76.0971 88.1408C75.8489 87.8926 75.6522 87.5978 75.5184 87.2733C75.3846 86.9488 75.3163 86.601 75.3174 86.25Z" fill="white"/>
<path fill-rule="evenodd" clip-rule="evenodd" d="M65.9727 90.4443C65.9718 89.9913 66.1054 89.5483 66.3564 89.1713C66.6075 88.7942 66.9647 88.5001 67.383 88.3262C67.8012 88.1523 68.2617 88.1063 68.706 88.1942C69.1504 88.282 69.5587 88.4997 69.8793 88.8197C70.1999 89.1397 70.4184 89.5476 70.5071 89.9919C70.5957 90.4361 70.5506 90.8966 70.3775 91.3152C70.2043 91.7337 69.9109 92.0915 69.5343 92.3433C69.1578 92.595 68.715 92.7294 68.262 92.7294C67.6557 92.7291 67.0742 92.4884 66.645 92.0601C66.2159 91.6317 65.9741 91.0507 65.9727 90.4443Z" fill="white"/>
<path fill-rule="evenodd" clip-rule="evenodd" d="M55.3945 75.9543C55.395 75.502 55.5295 75.06 55.781 74.6842C56.0326 74.3083 56.39 74.0155 56.8079 73.8427C57.2259 73.6699 57.6857 73.6249 58.1293 73.7134C58.5728 73.8019 58.9801 74.0199 59.2998 74.3399C59.6195 74.6598 59.8371 75.0674 59.9252 75.511C60.0133 75.9546 59.9678 76.4144 59.7947 76.8322C59.6215 77.25 59.3283 77.6071 58.9522 77.8583C58.5762 78.1095 58.134 78.2436 57.6818 78.2436C57.0749 78.2431 56.4932 78.0016 56.0643 77.5723C55.6354 77.1431 55.3945 76.5611 55.3945 75.9543Z" fill="white"/>
<path fill-rule="evenodd" clip-rule="evenodd" d="M52.6309 82.1483C52.6317 81.6961 52.7666 81.2542 53.0185 80.8787C53.2704 80.5031 53.6279 80.2106 54.046 80.0381C54.4641 79.8657 54.9239 79.8211 55.3673 79.9099C55.8107 79.9987 56.2179 80.217 56.5373 80.5371C56.8567 80.8573 57.074 81.2649 57.1618 81.7086C57.2496 82.1522 57.2039 82.6119 57.0305 83.0296C56.8571 83.4472 56.5638 83.8041 56.1876 84.0551C55.8114 84.3061 55.3693 84.44 54.917 84.4398C54.6163 84.4399 54.3185 84.3807 54.0408 84.2655C53.763 84.1504 53.5107 83.9815 53.2983 83.7686C53.0859 83.5557 52.9176 83.303 52.8031 83.025C52.6885 82.7469 52.63 82.449 52.6309 82.1483Z" fill="white"/>
<path fill-rule="evenodd" clip-rule="evenodd" d="M40.8125 80.8194C40.8129 80.3674 40.9474 79.9256 41.1988 79.5499C41.4503 79.1742 41.8075 78.8815 42.2253 78.7088C42.643 78.5361 43.1026 78.4911 43.546 78.5796C43.9893 78.668 44.3965 78.8859 44.716 79.2058C45.0355 79.5256 45.253 79.9329 45.341 80.3763C45.4291 80.8197 45.3837 81.2793 45.2106 81.6969C45.0375 82.1145 44.7445 82.4715 44.3686 82.7226C43.9927 82.9737 43.5507 83.1077 43.0987 83.1077C42.7982 83.108 42.5006 83.049 42.223 82.9341C41.9453 82.8191 41.6931 82.6506 41.4807 82.438C41.2684 82.2254 41.1 81.973 40.9853 81.6953C40.8707 81.4175 40.8119 81.1199 40.8125 80.8194Z" fill="white"/>
<path fill-rule="evenodd" clip-rule="evenodd" d="M32.041 83.1045C32.0408 82.6523 32.1747 82.2101 32.4259 81.834C32.677 81.4579 33.034 81.1647 33.4518 80.9916C33.8696 80.8184 34.3294 80.773 34.7729 80.8612C35.2165 80.9494 35.6239 81.1671 35.9437 81.4869C36.2635 81.8067 36.4813 82.2142 36.5695 82.6577C36.6576 83.1013 36.6123 83.5611 36.4391 83.9788C36.2659 84.3966 35.9728 84.7537 35.5966 85.0048C35.2205 85.2559 34.7784 85.3898 34.3261 85.3896C33.7203 85.3888 33.1396 85.1478 32.7112 84.7194C32.2829 84.2911 32.0419 83.7103 32.041 83.1045Z" fill="white"/>
<path fill-rule="evenodd" clip-rule="evenodd" d="M54.917 99.212C54.917 98.7594 55.0512 98.3169 55.3027 97.9406C55.5542 97.5642 55.9116 97.271 56.3298 97.0978C56.748 96.9246 57.2082 96.8794 57.6521 96.9678C58.096 97.0561 58.5037 97.2742 58.8237 97.5943C59.1437 97.9144 59.3615 98.3223 59.4497 98.7662C59.5379 99.2102 59.4924 99.6703 59.3191 100.088C59.1457 100.507 58.8523 100.864 58.4758 101.115C58.0994 101.366 57.6568 101.5 57.2042 101.5C56.5975 101.5 56.0157 101.259 55.5868 100.83C55.1579 100.401 54.917 99.8187 54.917 99.212Z" fill="white"/>
<path fill-rule="evenodd" clip-rule="evenodd" d="M40.0469 92.8295C40.046 92.3767 40.1795 91.9338 40.4304 91.5568C40.6813 91.1798 41.0384 90.8857 41.4564 90.7117C41.8745 90.5377 42.3348 90.4915 42.7791 90.5791C43.2234 90.6667 43.6317 90.8841 43.9524 91.2038C44.2731 91.5235 44.4918 91.9311 44.5809 92.3751C44.6699 92.8191 44.6253 93.2795 44.4526 93.6981C44.28 94.1168 43.987 94.4748 43.6109 94.7269C43.2347 94.9791 42.7923 95.114 42.3394 95.1146C41.7324 95.1154 41.15 94.8752 40.7201 94.4467C40.2901 94.0182 40.048 93.4365 40.0469 92.8295Z" fill="white"/>
<path fill-rule="evenodd" clip-rule="evenodd" d="M83.9932 78.2436C83.9927 77.7906 84.1268 77.3476 84.3783 76.9707C84.6297 76.5939 84.9874 76.3001 85.4059 76.1266C85.8245 75.9531 86.2851 75.9078 86.7294 75.9962C87.1738 76.0846 87.5819 76.3029 87.9021 76.6234C88.2223 76.9439 88.4402 77.3523 88.5282 77.7967C88.6163 78.2411 88.5704 78.7017 88.3966 79.1201C88.2227 79.5384 87.9286 79.8958 87.5515 80.147C87.1744 80.3981 86.7313 80.5317 86.2783 80.5308C85.672 80.5303 85.0908 80.2891 84.6623 79.8602C84.2338 79.4313 83.9932 78.8499 83.9932 78.2436Z" fill="white"/>
<path fill-rule="evenodd" clip-rule="evenodd" d="M77.5811 69.5153C77.5808 68.6955 77.8237 67.894 78.279 67.2123C78.7343 66.5305 79.3815 65.999 80.1388 65.685C80.8961 65.371 81.7295 65.2887 82.5336 65.4483C83.3378 65.608 84.0765 66.0025 84.6564 66.582C85.2364 67.1614 85.6314 67.8999 85.7917 68.7039C85.952 69.5079 85.8703 70.3413 85.5569 71.0989C85.2435 71.8565 84.7125 72.5041 84.0311 72.9599C83.3496 73.4157 82.5483 73.6592 81.7285 73.6596C81.184 73.6599 80.6449 73.5529 80.1417 73.3448C79.6386 73.1366 79.1815 72.8314 78.7963 72.4466C78.4112 72.0617 78.1056 71.6048 77.8971 71.1019C77.6886 70.5989 77.5812 70.0598 77.5811 69.5153Z" fill="white"/>
</svg>
