<svg width="268" height="104" viewBox="0 0 268 104" fill="none" xmlns="http://www.w3.org/2000/svg">
<g clip-path="url(#clip0)">
<path fill-rule="evenodd" clip-rule="evenodd" d="M101.659 0.319031H108.883C113.443 0.319031 117.174 4.06546 117.174 8.64476V16.6394C114.341 17.0888 111.468 17.6596 108.507 18.4789V7.79691C108.507 6.27946 107.271 5.03914 105.761 5.03914H105.206C103.695 5.03914 102.46 6.27946 102.46 7.79691V38.775C102.46 40.2909 103.695 41.5312 105.206 41.5312H105.761C107.271 41.5312 108.507 40.2909 108.507 38.775V28.7161L117.174 26.4661V37.978C117.174 42.5573 113.443 46.3038 108.883 46.3038H101.659C97.0989 46.3038 93.3682 42.5573 93.3682 37.978V8.64476C93.3682 4.06546 97.0989 0.319031 101.659 0.319031Z" fill="black"/>
<path fill-rule="evenodd" clip-rule="evenodd" d="M254.027 8.37814H260.548C264.663 8.37814 268.031 11.7591 268.031 15.892V38.2762C268.031 42.4106 264.663 45.7915 260.548 45.7915H254.027C249.912 45.7915 246.545 42.4106 246.545 38.2762V15.892C246.545 11.7591 249.912 8.37814 254.027 8.37814ZM257.229 12.2189H257.73C259.093 12.2189 260.209 13.3379 260.209 14.7071V39.4191C260.209 40.7883 259.093 41.9087 257.73 41.9087H257.229C255.865 41.9087 254.751 40.7883 254.751 39.4191V14.7071C254.751 13.3379 255.865 12.2189 257.229 12.2189Z" fill="black"/>
<path fill-rule="evenodd" clip-rule="evenodd" d="M119.829 9.16159H131.342V38.5308C131.342 40.0752 132.6 41.3395 134.137 41.3395H137.224V13.0938C137.136 11.3112 136.38 10.0334 135.083 9.16159H145.801V43.1356C145.786 44.2336 146.287 45.1324 147.414 45.7915H129.88C126.029 45.7915 122.878 42.6278 122.878 38.76V13.1327C122.684 11.3636 121.34 10.1293 119.829 9.16159Z" fill="black"/>
<path fill-rule="evenodd" clip-rule="evenodd" d="M149.141 9.1106H160.93V43.4696C161.12 44.1377 162.069 45.1159 163.222 45.7914H150.198C151.477 45.0499 152.296 44.28 152.466 43.4696V13.1072C152.272 11.4444 151.014 10.1652 149.141 9.1106Z" fill="black"/>
<path fill-rule="evenodd" clip-rule="evenodd" d="M171.356 9.16156H179.375V6.05027C179.004 3.74489 177.52 1.94882 175.667 0.319031C181.103 1.26275 185.027 4.65866 190.842 4.81744C189.219 6.07274 187.871 7.44189 187.526 9.16905V43.4621C187.715 44.2665 189.44 45.02 190.398 45.799L173.38 45.7915C169.834 45.79 166.932 42.8779 166.932 39.3157V13.6045C166.932 11.1614 168.923 9.16156 171.356 9.16156ZM177.354 13.7573H179.375V41.1028H177.354C176.243 41.1028 175.333 40.189 175.333 39.0731V15.7871C175.333 14.6696 176.243 13.7573 177.354 13.7573Z" fill="black"/>
<path fill-rule="evenodd" clip-rule="evenodd" d="M155.319 0.319031C157.921 0.319031 160.03 1.76457 160.03 3.54716C160.03 5.32975 157.921 6.77529 155.319 6.77529C152.718 6.77529 150.608 5.32975 150.608 3.54716C150.608 1.76457 152.718 0.319031 155.319 0.319031Z" fill="black"/>
<path fill-rule="evenodd" clip-rule="evenodd" d="M201.445 30.8073C202.828 29.4112 204.395 28.451 206.181 27.9986V41.0519H203.057C202.171 41.0519 201.445 40.3239 201.445 39.4341V30.8073ZM200.841 8.39313H206.634C210.805 8.39313 214.217 11.8205 214.217 16.0073V43.4157C214.357 44.334 215.61 45.0605 216.685 45.7915H197.969C195.544 45.7915 193.56 43.7992 193.56 41.365V29.5774C193.889 27.326 197.249 25.7846 201.445 24.1278C203.409 22.9414 206.088 22.5355 206.257 19.8406V15.4141C206.257 14.1378 205.217 13.0938 203.946 13.0938H203.851C202.528 13.0938 201.445 14.1813 201.445 15.51V20.654C198.789 21.3596 196.167 22.6628 193.56 24.2447V15.7047C193.56 11.6827 196.835 8.39313 200.841 8.39313Z" fill="black"/>
<path fill-rule="evenodd" clip-rule="evenodd" d="M224.574 9.16156H232.595V6.05027C232.222 3.74489 230.738 1.94882 228.885 0.319031C234.322 1.26275 238.245 4.65866 244.06 4.81744C242.437 6.07274 241.088 7.44189 240.744 9.16905V43.4621C240.933 44.2665 242.658 45.02 243.615 45.799L226.598 45.7915C223.052 45.79 220.149 42.8779 220.149 39.3157V13.6045C220.149 11.1614 222.141 9.16156 224.574 9.16156ZM230.572 13.7573H232.595V41.1028H230.572C229.461 41.1028 228.551 40.189 228.551 39.0731V15.7871C228.551 14.6696 229.461 13.7573 230.572 13.7573Z" fill="black"/>
<path fill-rule="evenodd" clip-rule="evenodd" d="M147.982 53.4087H166.599C170.643 53.4087 173.951 56.7297 173.951 60.7907V74.3668C173.951 77.9844 171.004 80.9444 167.401 80.9444H159.907V95.5736C159.959 96.4469 160.735 97.2693 161.964 98.0572H148.276C150.039 97.3187 150.866 96.4814 151.006 95.5736V56.7851C150.882 55.3575 149.483 54.273 147.982 53.4087ZM159.907 58.6486H163.093C164.306 58.6486 165.298 59.6447 165.298 60.8611V73.7436C165.298 75.0244 164.254 76.073 162.979 76.073H159.907V58.6486Z" fill="black"/>
<path fill-rule="evenodd" clip-rule="evenodd" d="M188.304 65.2067C189.595 65.2067 190.649 66.2657 190.649 67.5615V73.3316L185.961 74.5001V67.5615C185.961 66.2657 187.016 65.2067 188.304 65.2067ZM185.005 61.0093H191.606C195.632 61.0093 198.927 64.3169 198.927 68.3614V76.5163L198.915 76.5193C194.634 76.8579 190.326 77.7012 185.961 79.6411V92.1821C185.961 93.4764 187.016 94.5354 188.304 94.5354C189.595 94.5354 190.649 93.4764 190.649 92.1821V81.9225C193.053 80.6103 195.923 80.0006 198.927 79.8793V91.3822C198.927 95.4252 195.632 98.7342 191.606 98.7342H185.005C180.979 98.7342 177.684 95.4252 177.684 91.3822V68.3614C177.684 64.3169 180.979 61.0093 185.005 61.0093Z" fill="black"/>
<path fill-rule="evenodd" clip-rule="evenodd" d="M202.483 61.5231H210.955L212.248 62.8219C214.348 61.255 216.584 60.5255 219.019 61.0243L219.047 67.0611C216.772 64.9774 213.67 65.2471 213.379 67.4955V95.5735C213.65 96.5053 214.404 97.3381 215.725 98.0572H202.594C204.039 97.3531 204.827 96.5337 204.845 95.5765V64.1446C204.751 63.1185 203.921 62.2541 202.483 61.5231Z" fill="black"/>
<path fill-rule="evenodd" clip-rule="evenodd" d="M220.749 61.5231H229.22L230.514 62.8219C232.613 61.255 234.849 60.5255 237.285 61.0243L237.311 67.0611C235.038 64.9774 231.935 65.2471 231.644 67.4955V95.5735C231.914 96.5053 232.669 97.3381 233.989 98.0572H220.859C222.305 97.3531 223.091 96.5337 223.11 95.5765V64.1446C223.015 63.1185 222.187 62.2541 220.749 61.5231Z" fill="black"/>
<path fill-rule="evenodd" clip-rule="evenodd" d="M247.12 61.1666H253.64C257.756 61.1666 261.124 64.5476 261.124 68.6805V91.0647C261.124 95.1976 257.756 98.5785 253.64 98.5785H247.12C243.004 98.5785 239.638 95.1976 239.638 91.0647V68.6805C239.638 64.5476 243.004 61.1666 247.12 61.1666ZM250.321 65.0059H250.824C252.186 65.0059 253.302 66.1264 253.302 67.4941V92.2076C253.302 93.5768 252.186 94.6958 250.824 94.6958H250.321C248.959 94.6958 247.844 93.5768 247.844 92.2076V67.4941C247.844 66.1264 248.959 65.0059 250.321 65.0059Z" fill="black"/>
<path fill-rule="evenodd" clip-rule="evenodd" d="M110.297 54.8467H113.312C115.215 54.8467 116.773 56.2623 116.773 57.994V61.0154C115.591 61.1861 114.392 61.4018 113.155 61.7119V57.6734C113.155 57.0997 112.641 56.6308 112.01 56.6308H111.778C111.147 56.6308 110.633 57.0997 110.633 57.6734V69.383C110.633 69.9568 111.147 70.4256 111.778 70.4256H112.01C112.641 70.4256 113.155 69.9568 113.155 69.383V65.5812L116.773 64.7303V69.0834C116.773 70.8136 115.215 72.2292 113.312 72.2292H110.297C108.395 72.2292 106.838 70.8136 106.838 69.0834V57.994C106.838 56.2623 108.395 54.8467 110.297 54.8467Z" fill="black"/>
<path fill-rule="evenodd" clip-rule="evenodd" d="M122.632 54.61H125.682C127.608 54.61 129.185 56.1919 129.185 58.1258V68.5981C129.185 70.532 127.608 72.1153 125.682 72.1153H122.632C120.706 72.1153 119.131 70.532 119.131 68.5981V58.1258C119.131 56.1919 120.706 54.61 122.632 54.61ZM124.13 56.4061H124.365C125.002 56.4061 125.524 56.9304 125.524 57.57V69.1329C125.524 69.774 125.002 70.2983 124.365 70.2983H124.13C123.493 70.2983 122.971 69.774 122.971 69.1329V57.57C122.971 56.9304 123.493 56.4061 124.13 56.4061Z" fill="black"/>
<path fill-rule="evenodd" clip-rule="evenodd" d="M121.183 82.5816C121.779 82.5816 122.265 83.0715 122.265 83.6692V86.3325L120.101 86.8718V83.6692C120.101 83.0715 120.588 82.5816 121.183 82.5816ZM119.659 80.6447H122.707C124.565 80.6447 126.085 82.1712 126.085 84.0377V87.8021L126.081 87.8036C124.104 87.9593 122.116 88.3488 120.101 89.2446V95.0328C120.101 95.6305 120.588 96.1203 121.183 96.1203C121.779 96.1203 122.265 95.6305 122.265 95.0328V90.2977C123.373 89.6925 124.699 89.4109 126.085 89.354V94.6643C126.085 96.5307 124.565 98.0572 122.707 98.0572H119.659C117.8 98.0572 116.28 96.5307 116.28 94.6643V84.0377C116.28 82.1712 117.8 80.6447 119.659 80.6447Z" fill="black"/>
<path fill-rule="evenodd" clip-rule="evenodd" d="M126.97 76.9433C129.353 77.1844 131.311 78.6929 133.884 78.7139C133.487 78.9476 133.156 79.2142 132.969 79.5542V97.1284C133.028 97.4805 133.347 97.7906 133.93 98.0572H127.962C128.599 97.9164 128.894 97.5808 128.985 97.1284V79.1423C128.83 78.2285 128.012 77.5455 126.97 76.9433Z" fill="black"/>
<path fill-rule="evenodd" clip-rule="evenodd" d="M130.563 54.9666H138.839C140.658 54.9666 142.147 56.4615 142.147 58.2876V71.7573C142.152 74.3338 143.422 75.7389 144.057 76.831C139.681 76.7875 140.121 73.107 137.381 72.0509C137.916 71.7543 138.389 71.4338 138.389 70.7836V57.9385C138.389 57.2 137.788 56.5948 137.051 56.5948H135.713V70.7761C135.704 71.0982 135.969 71.4263 136.359 71.7573H131.005C131.691 71.4622 132.034 71.1357 132.028 70.7761V56.827C132.016 55.9732 131.561 55.3366 130.563 54.9666Z" fill="black"/>
<path fill-rule="evenodd" clip-rule="evenodd" d="M74.7258 103.99H77.6182C78.8891 103.082 80.2003 102.868 80.0526 100.67C79.9691 99.3985 78.9547 97.3808 78.4535 96.5269C77.4466 94.8117 76.6232 94.9226 76.6515 92.5453C76.6709 90.9245 76.8589 89.088 76.9469 87.4582C77.1244 84.1881 76.6844 79.7152 77.9851 76.9095C79.2038 74.2835 78.0791 69.7432 77.6778 66.915C77.2288 63.7498 81.4429 60.0858 77.6032 47.7949C77.1915 46.4752 76.4173 44.6806 76.1414 43.5137C75.7505 41.8614 75.767 40.6855 75.2001 39.0872C73.7099 34.8809 72.2465 35.895 72.3346 30.6746C74.2111 29.9121 75.752 28.2898 77.0424 27.057C77.8479 26.2855 78.3998 25.4452 79.1337 24.7666C80.0332 23.9352 80.9387 24.0655 81.5906 23.2012C84.3189 19.5866 78.8339 13.2172 77.372 11.9874C79.4529 5.55658 74.7675 0.539869 70.9861 0.466468C69.0409 0.429018 70.0135 1.08513 68.298 1.48958C66.2365 1.97792 56.8462 1.05817 54.4521 0.565334C51.6581 -0.00838926 50.3171 0.470962 48.3152 1.57647C41.6369 5.26597 48.6001 6.67706 50.605 8.34131C47.6022 10.0745 50.3902 11.7836 50.2425 13.9183C50.1828 14.7841 48.5047 17.8864 48.0571 19.5267C46.6296 24.7441 47.8737 28.2598 44.3219 31.6453C42.8809 33.0189 41.8174 34.5378 40.6151 36.0163C38.4357 38.6962 31.5709 36.6979 25.1491 43.653L21.669 42.3468C21.4154 45.4431 24.9656 45.5 21.6391 48.6652C17.1267 52.9584 16.1288 57.0479 13.7809 60.3419C11.7074 63.2495 10.2813 66.6529 9.14466 70.1806C8.26903 72.9039 8.87317 72.6163 7.67832 73.4267C2.00688 77.269 4.55172 76.2204 2.87952 83.1006C2.29925 85.4884 0.0139663 84.9626 0.212363 94.6994L6.12844 94.4537C7.01302 92.6202 6.83551 90.1321 6.80418 87.7743C6.76391 84.5956 7.05777 87.7563 8.55395 82.4145C9.86366 77.7453 19.8566 71.4868 24.0199 68.9373C26.238 67.5771 26.2201 66.9794 29.1543 67.7928C31.7305 68.5059 32.812 68.2572 35.0734 67.5172C34.2738 73.4297 35.5612 79.5174 36.316 85.1963C36.6054 87.3728 36.2682 92.2143 36.0892 94.5676C35.8908 97.174 35.1256 95.9322 34.8839 97.9904C34.2873 103.087 41.3982 102.024 42.1769 101.331C43.6894 99.9827 43.1897 96.9973 42.9257 94.7908C45.2348 95.2656 44.9276 95.9262 46.819 94.9226C47.2665 91.3964 45.2826 90.7088 44.6277 88.6716C44.2086 87.3698 44.4189 82.1659 44.7426 80.9915C47.6216 80.0702 47.805 80.8147 49.8099 78.3056C50.9063 76.9305 51.2926 74.9052 52.2145 73.229C63.3933 75.0864 69.0812 61.3935 69.3959 68.8833C69.6555 75.019 67.2837 71.0419 70.4028 87.4073C71.7244 94.3384 72.6538 93.3317 71.1322 96.7037C70.0776 99.0345 71.6245 98.4818 72.2779 100.756C72.9491 103.096 73.0864 102.77 74.7258 103.99Z" fill="black"/>
</g>
<defs>
<clipPath id="clip0">
<rect width="268" height="104" fill="white"/>
</clipPath>
</defs>
</svg>
