<svg width="29" height="29" viewBox="0 0 29 29" fill="none" xmlns="http://www.w3.org/2000/svg">
<path fill-rule="evenodd" clip-rule="evenodd" d="M18.1249 4.83331H10.8749C7.53871 4.83331 4.83325 7.53877 4.83325 10.875V18.125C4.83325 21.4612 7.53871 24.1666 10.8749 24.1666H18.1249C21.4611 24.1666 24.1666 21.4612 24.1666 18.125V10.875C24.1666 7.53877 21.4611 4.83331 18.1249 4.83331ZM22.3541 18.125C22.3541 20.4571 20.457 22.3541 18.1249 22.3541H10.8749C8.54283 22.3541 6.64575 20.4571 6.64575 18.125V10.875C6.64575 8.5429 8.54283 6.64581 10.8749 6.64581H18.1249C20.457 6.64581 22.3541 8.5429 22.3541 10.875V18.125Z" fill="#84BD00"/>
<path fill-rule="evenodd" clip-rule="evenodd" d="M14.4998 9.66663C11.8306 9.66663 9.6665 11.8308 9.6665 14.5C9.6665 17.1692 11.8306 19.3333 14.4998 19.3333C17.169 19.3333 19.3332 17.1692 19.3332 14.5C19.3332 11.8308 17.169 9.66663 14.4998 9.66663ZM14.4998 17.5208C12.8348 17.5208 11.479 16.165 11.479 14.5C11.479 12.8337 12.8348 11.4791 14.4998 11.4791C16.1649 11.4791 17.5207 12.8337 17.5207 14.5C17.5207 16.165 16.1649 17.5208 14.4998 17.5208Z" fill="#84BD00"/>
<path fill-rule="evenodd" clip-rule="evenodd" d="M19.9374 9.66665C20.2711 9.66665 20.5416 9.39615 20.5416 9.06248C20.5416 8.72881 20.2711 8.45831 19.9374 8.45831C19.6037 8.45831 19.3333 8.72881 19.3333 9.06248C19.3333 9.39615 19.6037 9.66665 19.9374 9.66665Z" fill="#84BD00"/>
</svg>
